<mxfile host="Electron" modified="2023-06-16T17:46:47.618Z" agent="Mozilla/5.0 (Macintosh; Intel Mac OS X 10_15_7) AppleWebKit/537.36 (KHTML, like Gecko) draw.io/21.2.8 Chrome/112.0.5615.165 Electron/24.2.0 Safari/537.36" etag="SvKzjCrx_HTrc0QVjTr1" version="21.2.8" type="device">
  <diagram name="Page-1" id="gusNZirbSwCRtQc3CByx">
    <mxGraphModel dx="2124" dy="1370" grid="1" gridSize="10" guides="1" tooltips="1" connect="1" arrows="1" fold="1" page="0" pageScale="1" pageWidth="850" pageHeight="1100" math="0" shadow="0">
      <root>
        <mxCell id="0" />
        <mxCell id="aqVbvqTBp94p9ZoE7eEu-1" value="timeline" parent="0" />
        <mxCell id="aqVbvqTBp94p9ZoE7eEu-119" value="" style="rounded=0;whiteSpace=wrap;html=1;strokeColor=none;fillColor=#fce5cd;" parent="aqVbvqTBp94p9ZoE7eEu-1" vertex="1">
          <mxGeometry x="40" y="560" width="360" height="100" as="geometry" />
        </mxCell>
        <mxCell id="aqVbvqTBp94p9ZoE7eEu-120" value="" style="rounded=0;whiteSpace=wrap;html=1;strokeColor=none;fillColor=#b6d7a8;" parent="aqVbvqTBp94p9ZoE7eEu-1" vertex="1">
          <mxGeometry x="400" y="560" width="360" height="100" as="geometry" />
        </mxCell>
        <mxCell id="aqVbvqTBp94p9ZoE7eEu-121" value="" style="rounded=0;whiteSpace=wrap;html=1;strokeColor=none;fillColor=#C9DAF8;" parent="aqVbvqTBp94p9ZoE7eEu-1" vertex="1">
          <mxGeometry x="1120" y="560" width="360" height="100" as="geometry" />
        </mxCell>
        <mxCell id="aqVbvqTBp94p9ZoE7eEu-122" value="" style="rounded=0;whiteSpace=wrap;html=1;strokeColor=none;fillColor=#FFF2CC;" parent="aqVbvqTBp94p9ZoE7eEu-1" vertex="1">
          <mxGeometry x="760" y="560" width="360" height="100" as="geometry" />
        </mxCell>
        <mxCell id="aqVbvqTBp94p9ZoE7eEu-3" value="" style="endArrow=classic;html=1;rounded=0;strokeWidth=2;strokeColor=#000099;exitX=0;exitY=0;exitDx=0;exitDy=0;" parent="aqVbvqTBp94p9ZoE7eEu-1" source="aqVbvqTBp94p9ZoE7eEu-29" edge="1">
          <mxGeometry width="50" height="50" relative="1" as="geometry">
            <mxPoint y="600" as="sourcePoint" />
            <mxPoint x="1520" y="600" as="targetPoint" />
          </mxGeometry>
        </mxCell>
        <mxCell id="aqVbvqTBp94p9ZoE7eEu-4" value="" style="endArrow=none;html=1;rounded=0;strokeWidth=2;strokeColor=#000099;" parent="aqVbvqTBp94p9ZoE7eEu-1" edge="1">
          <mxGeometry width="50" height="50" relative="1" as="geometry">
            <mxPoint x="40" y="630" as="sourcePoint" />
            <mxPoint x="40" y="570" as="targetPoint" />
          </mxGeometry>
        </mxCell>
        <mxCell id="aqVbvqTBp94p9ZoE7eEu-5" value="" style="endArrow=none;html=1;rounded=0;strokeWidth=2;strokeColor=#000099;" parent="aqVbvqTBp94p9ZoE7eEu-1" edge="1">
          <mxGeometry width="50" height="50" relative="1" as="geometry">
            <mxPoint x="70" y="620" as="sourcePoint" />
            <mxPoint x="70" y="580" as="targetPoint" />
          </mxGeometry>
        </mxCell>
        <mxCell id="aqVbvqTBp94p9ZoE7eEu-8" value="" style="endArrow=none;html=1;rounded=0;strokeWidth=2;strokeColor=#000099;" parent="aqVbvqTBp94p9ZoE7eEu-1" edge="1">
          <mxGeometry width="50" height="50" relative="1" as="geometry">
            <mxPoint x="100" y="620" as="sourcePoint" />
            <mxPoint x="100" y="580" as="targetPoint" />
          </mxGeometry>
        </mxCell>
        <mxCell id="aqVbvqTBp94p9ZoE7eEu-9" value="" style="endArrow=none;html=1;rounded=0;strokeWidth=2;strokeColor=#000099;" parent="aqVbvqTBp94p9ZoE7eEu-1" edge="1">
          <mxGeometry width="50" height="50" relative="1" as="geometry">
            <mxPoint x="130" y="620" as="sourcePoint" />
            <mxPoint x="130" y="580" as="targetPoint" />
          </mxGeometry>
        </mxCell>
        <mxCell id="aqVbvqTBp94p9ZoE7eEu-10" value="" style="endArrow=none;html=1;rounded=0;strokeWidth=2;strokeColor=#000099;" parent="aqVbvqTBp94p9ZoE7eEu-1" edge="1">
          <mxGeometry width="50" height="50" relative="1" as="geometry">
            <mxPoint x="160" y="620" as="sourcePoint" />
            <mxPoint x="160" y="580" as="targetPoint" />
          </mxGeometry>
        </mxCell>
        <mxCell id="aqVbvqTBp94p9ZoE7eEu-19" value="" style="endArrow=none;html=1;rounded=0;strokeWidth=2;strokeColor=#000099;" parent="aqVbvqTBp94p9ZoE7eEu-1" edge="1">
          <mxGeometry width="50" height="50" relative="1" as="geometry">
            <mxPoint x="190" y="620" as="sourcePoint" />
            <mxPoint x="190" y="580" as="targetPoint" />
          </mxGeometry>
        </mxCell>
        <mxCell id="aqVbvqTBp94p9ZoE7eEu-20" value="" style="endArrow=none;html=1;rounded=0;strokeWidth=2;strokeColor=#000099;" parent="aqVbvqTBp94p9ZoE7eEu-1" edge="1">
          <mxGeometry width="50" height="50" relative="1" as="geometry">
            <mxPoint x="220" y="620" as="sourcePoint" />
            <mxPoint x="220" y="580" as="targetPoint" />
          </mxGeometry>
        </mxCell>
        <mxCell id="aqVbvqTBp94p9ZoE7eEu-21" value="" style="endArrow=none;html=1;rounded=0;strokeWidth=2;strokeColor=#000099;" parent="aqVbvqTBp94p9ZoE7eEu-1" edge="1">
          <mxGeometry width="50" height="50" relative="1" as="geometry">
            <mxPoint x="250" y="620" as="sourcePoint" />
            <mxPoint x="250" y="580" as="targetPoint" />
          </mxGeometry>
        </mxCell>
        <mxCell id="aqVbvqTBp94p9ZoE7eEu-22" value="" style="endArrow=none;html=1;rounded=0;strokeWidth=2;strokeColor=#000099;" parent="aqVbvqTBp94p9ZoE7eEu-1" edge="1">
          <mxGeometry width="50" height="50" relative="1" as="geometry">
            <mxPoint x="280" y="620" as="sourcePoint" />
            <mxPoint x="280" y="580" as="targetPoint" />
          </mxGeometry>
        </mxCell>
        <mxCell id="aqVbvqTBp94p9ZoE7eEu-23" value="" style="endArrow=none;html=1;rounded=0;strokeWidth=2;strokeColor=#000099;" parent="aqVbvqTBp94p9ZoE7eEu-1" edge="1">
          <mxGeometry width="50" height="50" relative="1" as="geometry">
            <mxPoint x="310" y="620" as="sourcePoint" />
            <mxPoint x="310" y="580" as="targetPoint" />
          </mxGeometry>
        </mxCell>
        <mxCell id="aqVbvqTBp94p9ZoE7eEu-24" value="" style="endArrow=none;html=1;rounded=0;strokeWidth=2;strokeColor=#000099;" parent="aqVbvqTBp94p9ZoE7eEu-1" edge="1">
          <mxGeometry width="50" height="50" relative="1" as="geometry">
            <mxPoint x="340" y="620" as="sourcePoint" />
            <mxPoint x="340" y="580" as="targetPoint" />
          </mxGeometry>
        </mxCell>
        <mxCell id="aqVbvqTBp94p9ZoE7eEu-25" value="" style="endArrow=none;html=1;rounded=0;strokeWidth=2;strokeColor=#000099;" parent="aqVbvqTBp94p9ZoE7eEu-1" edge="1">
          <mxGeometry width="50" height="50" relative="1" as="geometry">
            <mxPoint x="370" y="620" as="sourcePoint" />
            <mxPoint x="370" y="580" as="targetPoint" />
          </mxGeometry>
        </mxCell>
        <mxCell id="aqVbvqTBp94p9ZoE7eEu-29" value="&lt;font style=&quot;font-size: 24px;&quot;&gt;J&lt;/font&gt;" style="text;html=1;strokeColor=none;fillColor=none;align=center;verticalAlign=middle;whiteSpace=wrap;rounded=0;" parent="aqVbvqTBp94p9ZoE7eEu-1" vertex="1">
          <mxGeometry x="40" y="600" width="30" height="30" as="geometry" />
        </mxCell>
        <mxCell id="aqVbvqTBp94p9ZoE7eEu-30" value="&lt;font style=&quot;font-size: 24px;&quot;&gt;F&lt;/font&gt;" style="text;html=1;strokeColor=none;fillColor=none;align=center;verticalAlign=middle;whiteSpace=wrap;rounded=0;" parent="aqVbvqTBp94p9ZoE7eEu-1" vertex="1">
          <mxGeometry x="70" y="600" width="30" height="30" as="geometry" />
        </mxCell>
        <mxCell id="aqVbvqTBp94p9ZoE7eEu-31" value="&lt;font style=&quot;font-size: 24px;&quot;&gt;A&lt;/font&gt;" style="text;html=1;strokeColor=none;fillColor=none;align=center;verticalAlign=middle;whiteSpace=wrap;rounded=0;" parent="aqVbvqTBp94p9ZoE7eEu-1" vertex="1">
          <mxGeometry x="130" y="600" width="30" height="30" as="geometry" />
        </mxCell>
        <mxCell id="aqVbvqTBp94p9ZoE7eEu-32" value="&lt;font style=&quot;font-size: 24px;&quot;&gt;M&lt;/font&gt;" style="text;html=1;strokeColor=none;fillColor=none;align=center;verticalAlign=middle;whiteSpace=wrap;rounded=0;" parent="aqVbvqTBp94p9ZoE7eEu-1" vertex="1">
          <mxGeometry x="100" y="600" width="30" height="30" as="geometry" />
        </mxCell>
        <mxCell id="aqVbvqTBp94p9ZoE7eEu-33" value="&lt;font style=&quot;font-size: 24px;&quot;&gt;M&lt;/font&gt;" style="text;html=1;strokeColor=none;fillColor=none;align=center;verticalAlign=middle;whiteSpace=wrap;rounded=0;" parent="aqVbvqTBp94p9ZoE7eEu-1" vertex="1">
          <mxGeometry x="160" y="600" width="30" height="30" as="geometry" />
        </mxCell>
        <mxCell id="aqVbvqTBp94p9ZoE7eEu-34" value="&lt;font style=&quot;font-size: 24px;&quot;&gt;J&lt;/font&gt;" style="text;html=1;strokeColor=none;fillColor=none;align=center;verticalAlign=middle;whiteSpace=wrap;rounded=0;" parent="aqVbvqTBp94p9ZoE7eEu-1" vertex="1">
          <mxGeometry x="190" y="600" width="30" height="30" as="geometry" />
        </mxCell>
        <mxCell id="aqVbvqTBp94p9ZoE7eEu-35" value="&lt;font style=&quot;font-size: 24px;&quot;&gt;J&lt;/font&gt;" style="text;html=1;strokeColor=none;fillColor=none;align=center;verticalAlign=middle;whiteSpace=wrap;rounded=0;" parent="aqVbvqTBp94p9ZoE7eEu-1" vertex="1">
          <mxGeometry x="220" y="600" width="30" height="30" as="geometry" />
        </mxCell>
        <mxCell id="aqVbvqTBp94p9ZoE7eEu-36" value="&lt;font style=&quot;font-size: 24px;&quot;&gt;A&lt;/font&gt;" style="text;html=1;strokeColor=none;fillColor=none;align=center;verticalAlign=middle;whiteSpace=wrap;rounded=0;" parent="aqVbvqTBp94p9ZoE7eEu-1" vertex="1">
          <mxGeometry x="250" y="600" width="30" height="30" as="geometry" />
        </mxCell>
        <mxCell id="aqVbvqTBp94p9ZoE7eEu-37" value="&lt;font style=&quot;font-size: 24px;&quot;&gt;S&lt;/font&gt;" style="text;html=1;strokeColor=none;fillColor=none;align=center;verticalAlign=middle;whiteSpace=wrap;rounded=0;" parent="aqVbvqTBp94p9ZoE7eEu-1" vertex="1">
          <mxGeometry x="280" y="600" width="30" height="30" as="geometry" />
        </mxCell>
        <mxCell id="aqVbvqTBp94p9ZoE7eEu-38" value="&lt;font style=&quot;font-size: 24px;&quot;&gt;O&lt;/font&gt;" style="text;html=1;strokeColor=none;fillColor=none;align=center;verticalAlign=middle;whiteSpace=wrap;rounded=0;" parent="aqVbvqTBp94p9ZoE7eEu-1" vertex="1">
          <mxGeometry x="310" y="600" width="30" height="30" as="geometry" />
        </mxCell>
        <mxCell id="aqVbvqTBp94p9ZoE7eEu-39" value="&lt;font style=&quot;font-size: 24px;&quot;&gt;N&lt;/font&gt;" style="text;html=1;strokeColor=none;fillColor=none;align=center;verticalAlign=middle;whiteSpace=wrap;rounded=0;" parent="aqVbvqTBp94p9ZoE7eEu-1" vertex="1">
          <mxGeometry x="340" y="600" width="30" height="30" as="geometry" />
        </mxCell>
        <mxCell id="aqVbvqTBp94p9ZoE7eEu-40" value="&lt;font style=&quot;font-size: 24px;&quot;&gt;D&lt;/font&gt;" style="text;html=1;strokeColor=none;fillColor=none;align=center;verticalAlign=middle;whiteSpace=wrap;rounded=0;" parent="aqVbvqTBp94p9ZoE7eEu-1" vertex="1">
          <mxGeometry x="370" y="600" width="30" height="30" as="geometry" />
        </mxCell>
        <mxCell id="aqVbvqTBp94p9ZoE7eEu-41" value="" style="endArrow=none;html=1;rounded=0;strokeWidth=2;strokeColor=#000099;" parent="aqVbvqTBp94p9ZoE7eEu-1" edge="1">
          <mxGeometry width="50" height="50" relative="1" as="geometry">
            <mxPoint x="400" y="630" as="sourcePoint" />
            <mxPoint x="400" y="570" as="targetPoint" />
          </mxGeometry>
        </mxCell>
        <mxCell id="aqVbvqTBp94p9ZoE7eEu-42" value="" style="endArrow=none;html=1;rounded=0;strokeWidth=2;strokeColor=#000099;" parent="aqVbvqTBp94p9ZoE7eEu-1" edge="1">
          <mxGeometry width="50" height="50" relative="1" as="geometry">
            <mxPoint x="430" y="620" as="sourcePoint" />
            <mxPoint x="430" y="580" as="targetPoint" />
          </mxGeometry>
        </mxCell>
        <mxCell id="aqVbvqTBp94p9ZoE7eEu-43" value="" style="endArrow=none;html=1;rounded=0;strokeWidth=2;strokeColor=#000099;" parent="aqVbvqTBp94p9ZoE7eEu-1" edge="1">
          <mxGeometry width="50" height="50" relative="1" as="geometry">
            <mxPoint x="460" y="620" as="sourcePoint" />
            <mxPoint x="460" y="580" as="targetPoint" />
          </mxGeometry>
        </mxCell>
        <mxCell id="aqVbvqTBp94p9ZoE7eEu-44" value="" style="endArrow=none;html=1;rounded=0;strokeWidth=2;strokeColor=#000099;" parent="aqVbvqTBp94p9ZoE7eEu-1" edge="1">
          <mxGeometry width="50" height="50" relative="1" as="geometry">
            <mxPoint x="490" y="620" as="sourcePoint" />
            <mxPoint x="490" y="580" as="targetPoint" />
          </mxGeometry>
        </mxCell>
        <mxCell id="aqVbvqTBp94p9ZoE7eEu-45" value="" style="endArrow=none;html=1;rounded=0;strokeWidth=2;strokeColor=#000099;" parent="aqVbvqTBp94p9ZoE7eEu-1" edge="1">
          <mxGeometry width="50" height="50" relative="1" as="geometry">
            <mxPoint x="520" y="620" as="sourcePoint" />
            <mxPoint x="520" y="580" as="targetPoint" />
          </mxGeometry>
        </mxCell>
        <mxCell id="aqVbvqTBp94p9ZoE7eEu-46" value="" style="endArrow=none;html=1;rounded=0;strokeWidth=2;strokeColor=#000099;" parent="aqVbvqTBp94p9ZoE7eEu-1" edge="1">
          <mxGeometry width="50" height="50" relative="1" as="geometry">
            <mxPoint x="550" y="620" as="sourcePoint" />
            <mxPoint x="550" y="580" as="targetPoint" />
          </mxGeometry>
        </mxCell>
        <mxCell id="aqVbvqTBp94p9ZoE7eEu-47" value="" style="endArrow=none;html=1;rounded=0;strokeWidth=2;strokeColor=#000099;" parent="aqVbvqTBp94p9ZoE7eEu-1" edge="1">
          <mxGeometry width="50" height="50" relative="1" as="geometry">
            <mxPoint x="580" y="620" as="sourcePoint" />
            <mxPoint x="580" y="580" as="targetPoint" />
          </mxGeometry>
        </mxCell>
        <mxCell id="aqVbvqTBp94p9ZoE7eEu-48" value="" style="endArrow=none;html=1;rounded=0;strokeWidth=2;strokeColor=#000099;" parent="aqVbvqTBp94p9ZoE7eEu-1" edge="1">
          <mxGeometry width="50" height="50" relative="1" as="geometry">
            <mxPoint x="610" y="620" as="sourcePoint" />
            <mxPoint x="610" y="580" as="targetPoint" />
          </mxGeometry>
        </mxCell>
        <mxCell id="aqVbvqTBp94p9ZoE7eEu-49" value="" style="endArrow=none;html=1;rounded=0;strokeWidth=2;strokeColor=#000099;" parent="aqVbvqTBp94p9ZoE7eEu-1" edge="1">
          <mxGeometry width="50" height="50" relative="1" as="geometry">
            <mxPoint x="640" y="620" as="sourcePoint" />
            <mxPoint x="640" y="580" as="targetPoint" />
          </mxGeometry>
        </mxCell>
        <mxCell id="aqVbvqTBp94p9ZoE7eEu-50" value="" style="endArrow=none;html=1;rounded=0;strokeWidth=2;strokeColor=#000099;" parent="aqVbvqTBp94p9ZoE7eEu-1" edge="1">
          <mxGeometry width="50" height="50" relative="1" as="geometry">
            <mxPoint x="670" y="620" as="sourcePoint" />
            <mxPoint x="670" y="580" as="targetPoint" />
          </mxGeometry>
        </mxCell>
        <mxCell id="aqVbvqTBp94p9ZoE7eEu-51" value="" style="endArrow=none;html=1;rounded=0;strokeWidth=2;strokeColor=#000099;" parent="aqVbvqTBp94p9ZoE7eEu-1" edge="1">
          <mxGeometry width="50" height="50" relative="1" as="geometry">
            <mxPoint x="700" y="620" as="sourcePoint" />
            <mxPoint x="700" y="580" as="targetPoint" />
          </mxGeometry>
        </mxCell>
        <mxCell id="aqVbvqTBp94p9ZoE7eEu-52" value="" style="endArrow=none;html=1;rounded=0;strokeWidth=2;strokeColor=#000099;" parent="aqVbvqTBp94p9ZoE7eEu-1" edge="1">
          <mxGeometry width="50" height="50" relative="1" as="geometry">
            <mxPoint x="730" y="620" as="sourcePoint" />
            <mxPoint x="730" y="580" as="targetPoint" />
          </mxGeometry>
        </mxCell>
        <mxCell id="aqVbvqTBp94p9ZoE7eEu-53" value="&lt;font style=&quot;font-size: 24px;&quot;&gt;J&lt;/font&gt;" style="text;html=1;strokeColor=none;fillColor=none;align=center;verticalAlign=middle;whiteSpace=wrap;rounded=0;" parent="aqVbvqTBp94p9ZoE7eEu-1" vertex="1">
          <mxGeometry x="400" y="600" width="30" height="30" as="geometry" />
        </mxCell>
        <mxCell id="aqVbvqTBp94p9ZoE7eEu-54" value="&lt;font style=&quot;font-size: 24px;&quot;&gt;F&lt;/font&gt;" style="text;html=1;strokeColor=none;fillColor=none;align=center;verticalAlign=middle;whiteSpace=wrap;rounded=0;" parent="aqVbvqTBp94p9ZoE7eEu-1" vertex="1">
          <mxGeometry x="430" y="600" width="30" height="30" as="geometry" />
        </mxCell>
        <mxCell id="aqVbvqTBp94p9ZoE7eEu-55" value="&lt;font style=&quot;font-size: 24px;&quot;&gt;A&lt;/font&gt;" style="text;html=1;strokeColor=none;fillColor=none;align=center;verticalAlign=middle;whiteSpace=wrap;rounded=0;" parent="aqVbvqTBp94p9ZoE7eEu-1" vertex="1">
          <mxGeometry x="490" y="600" width="30" height="30" as="geometry" />
        </mxCell>
        <mxCell id="aqVbvqTBp94p9ZoE7eEu-56" value="&lt;font style=&quot;font-size: 24px;&quot;&gt;M&lt;/font&gt;" style="text;html=1;strokeColor=none;fillColor=none;align=center;verticalAlign=middle;whiteSpace=wrap;rounded=0;" parent="aqVbvqTBp94p9ZoE7eEu-1" vertex="1">
          <mxGeometry x="460" y="600" width="30" height="30" as="geometry" />
        </mxCell>
        <mxCell id="aqVbvqTBp94p9ZoE7eEu-57" value="&lt;font style=&quot;font-size: 24px;&quot;&gt;M&lt;/font&gt;" style="text;html=1;strokeColor=none;fillColor=none;align=center;verticalAlign=middle;whiteSpace=wrap;rounded=0;" parent="aqVbvqTBp94p9ZoE7eEu-1" vertex="1">
          <mxGeometry x="520" y="600" width="30" height="30" as="geometry" />
        </mxCell>
        <mxCell id="aqVbvqTBp94p9ZoE7eEu-58" value="&lt;font style=&quot;font-size: 24px;&quot;&gt;J&lt;/font&gt;" style="text;html=1;strokeColor=none;fillColor=none;align=center;verticalAlign=middle;whiteSpace=wrap;rounded=0;" parent="aqVbvqTBp94p9ZoE7eEu-1" vertex="1">
          <mxGeometry x="550" y="600" width="30" height="30" as="geometry" />
        </mxCell>
        <mxCell id="aqVbvqTBp94p9ZoE7eEu-59" value="&lt;font style=&quot;font-size: 24px;&quot;&gt;J&lt;/font&gt;" style="text;html=1;strokeColor=none;fillColor=none;align=center;verticalAlign=middle;whiteSpace=wrap;rounded=0;" parent="aqVbvqTBp94p9ZoE7eEu-1" vertex="1">
          <mxGeometry x="580" y="600" width="30" height="30" as="geometry" />
        </mxCell>
        <mxCell id="aqVbvqTBp94p9ZoE7eEu-60" value="&lt;font style=&quot;font-size: 24px;&quot;&gt;A&lt;/font&gt;" style="text;html=1;strokeColor=none;fillColor=none;align=center;verticalAlign=middle;whiteSpace=wrap;rounded=0;" parent="aqVbvqTBp94p9ZoE7eEu-1" vertex="1">
          <mxGeometry x="610" y="600" width="30" height="30" as="geometry" />
        </mxCell>
        <mxCell id="aqVbvqTBp94p9ZoE7eEu-61" value="&lt;font style=&quot;font-size: 24px;&quot;&gt;S&lt;/font&gt;" style="text;html=1;strokeColor=none;fillColor=none;align=center;verticalAlign=middle;whiteSpace=wrap;rounded=0;" parent="aqVbvqTBp94p9ZoE7eEu-1" vertex="1">
          <mxGeometry x="640" y="600" width="30" height="30" as="geometry" />
        </mxCell>
        <mxCell id="aqVbvqTBp94p9ZoE7eEu-62" value="&lt;font style=&quot;font-size: 24px;&quot;&gt;O&lt;/font&gt;" style="text;html=1;strokeColor=none;fillColor=none;align=center;verticalAlign=middle;whiteSpace=wrap;rounded=0;" parent="aqVbvqTBp94p9ZoE7eEu-1" vertex="1">
          <mxGeometry x="670" y="600" width="30" height="30" as="geometry" />
        </mxCell>
        <mxCell id="aqVbvqTBp94p9ZoE7eEu-63" value="&lt;font style=&quot;font-size: 24px;&quot;&gt;N&lt;/font&gt;" style="text;html=1;strokeColor=none;fillColor=none;align=center;verticalAlign=middle;whiteSpace=wrap;rounded=0;" parent="aqVbvqTBp94p9ZoE7eEu-1" vertex="1">
          <mxGeometry x="700" y="600" width="30" height="30" as="geometry" />
        </mxCell>
        <mxCell id="aqVbvqTBp94p9ZoE7eEu-64" value="&lt;font style=&quot;font-size: 24px;&quot;&gt;D&lt;/font&gt;" style="text;html=1;strokeColor=none;fillColor=none;align=center;verticalAlign=middle;whiteSpace=wrap;rounded=0;" parent="aqVbvqTBp94p9ZoE7eEu-1" vertex="1">
          <mxGeometry x="730" y="600" width="30" height="30" as="geometry" />
        </mxCell>
        <mxCell id="aqVbvqTBp94p9ZoE7eEu-65" value="" style="endArrow=none;html=1;rounded=0;strokeWidth=2;strokeColor=#000099;" parent="aqVbvqTBp94p9ZoE7eEu-1" edge="1">
          <mxGeometry width="50" height="50" relative="1" as="geometry">
            <mxPoint x="760" y="630" as="sourcePoint" />
            <mxPoint x="760" y="570" as="targetPoint" />
          </mxGeometry>
        </mxCell>
        <mxCell id="aqVbvqTBp94p9ZoE7eEu-66" value="" style="endArrow=none;html=1;rounded=0;strokeWidth=2;strokeColor=#000099;" parent="aqVbvqTBp94p9ZoE7eEu-1" edge="1">
          <mxGeometry width="50" height="50" relative="1" as="geometry">
            <mxPoint x="790" y="620" as="sourcePoint" />
            <mxPoint x="790" y="580" as="targetPoint" />
          </mxGeometry>
        </mxCell>
        <mxCell id="aqVbvqTBp94p9ZoE7eEu-67" value="" style="endArrow=none;html=1;rounded=0;strokeWidth=2;strokeColor=#000099;" parent="aqVbvqTBp94p9ZoE7eEu-1" edge="1">
          <mxGeometry width="50" height="50" relative="1" as="geometry">
            <mxPoint x="820" y="620" as="sourcePoint" />
            <mxPoint x="820" y="580" as="targetPoint" />
          </mxGeometry>
        </mxCell>
        <mxCell id="aqVbvqTBp94p9ZoE7eEu-68" value="" style="endArrow=none;html=1;rounded=0;strokeWidth=2;strokeColor=#000099;" parent="aqVbvqTBp94p9ZoE7eEu-1" edge="1">
          <mxGeometry width="50" height="50" relative="1" as="geometry">
            <mxPoint x="850" y="620" as="sourcePoint" />
            <mxPoint x="850" y="580" as="targetPoint" />
          </mxGeometry>
        </mxCell>
        <mxCell id="aqVbvqTBp94p9ZoE7eEu-69" value="" style="endArrow=none;html=1;rounded=0;strokeWidth=2;strokeColor=#000099;" parent="aqVbvqTBp94p9ZoE7eEu-1" edge="1">
          <mxGeometry width="50" height="50" relative="1" as="geometry">
            <mxPoint x="880" y="620" as="sourcePoint" />
            <mxPoint x="880" y="580" as="targetPoint" />
          </mxGeometry>
        </mxCell>
        <mxCell id="aqVbvqTBp94p9ZoE7eEu-70" value="" style="endArrow=none;html=1;rounded=0;strokeWidth=2;strokeColor=#000099;" parent="aqVbvqTBp94p9ZoE7eEu-1" edge="1">
          <mxGeometry width="50" height="50" relative="1" as="geometry">
            <mxPoint x="910" y="620" as="sourcePoint" />
            <mxPoint x="910" y="580" as="targetPoint" />
          </mxGeometry>
        </mxCell>
        <mxCell id="aqVbvqTBp94p9ZoE7eEu-71" value="" style="endArrow=none;html=1;rounded=0;strokeWidth=2;strokeColor=#000099;" parent="aqVbvqTBp94p9ZoE7eEu-1" edge="1">
          <mxGeometry width="50" height="50" relative="1" as="geometry">
            <mxPoint x="940" y="620" as="sourcePoint" />
            <mxPoint x="940" y="580" as="targetPoint" />
          </mxGeometry>
        </mxCell>
        <mxCell id="aqVbvqTBp94p9ZoE7eEu-72" value="" style="endArrow=none;html=1;rounded=0;strokeWidth=2;strokeColor=#000099;" parent="aqVbvqTBp94p9ZoE7eEu-1" edge="1">
          <mxGeometry width="50" height="50" relative="1" as="geometry">
            <mxPoint x="970" y="620" as="sourcePoint" />
            <mxPoint x="970" y="580" as="targetPoint" />
          </mxGeometry>
        </mxCell>
        <mxCell id="aqVbvqTBp94p9ZoE7eEu-73" value="" style="endArrow=none;html=1;rounded=0;strokeWidth=2;strokeColor=#000099;" parent="aqVbvqTBp94p9ZoE7eEu-1" edge="1">
          <mxGeometry width="50" height="50" relative="1" as="geometry">
            <mxPoint x="1000" y="620" as="sourcePoint" />
            <mxPoint x="1000" y="580" as="targetPoint" />
          </mxGeometry>
        </mxCell>
        <mxCell id="aqVbvqTBp94p9ZoE7eEu-74" value="" style="endArrow=none;html=1;rounded=0;strokeWidth=2;strokeColor=#000099;" parent="aqVbvqTBp94p9ZoE7eEu-1" edge="1">
          <mxGeometry width="50" height="50" relative="1" as="geometry">
            <mxPoint x="1030" y="620" as="sourcePoint" />
            <mxPoint x="1030" y="580" as="targetPoint" />
          </mxGeometry>
        </mxCell>
        <mxCell id="aqVbvqTBp94p9ZoE7eEu-75" value="" style="endArrow=none;html=1;rounded=0;strokeWidth=2;strokeColor=#000099;" parent="aqVbvqTBp94p9ZoE7eEu-1" edge="1">
          <mxGeometry width="50" height="50" relative="1" as="geometry">
            <mxPoint x="1060" y="620" as="sourcePoint" />
            <mxPoint x="1060" y="580" as="targetPoint" />
          </mxGeometry>
        </mxCell>
        <mxCell id="aqVbvqTBp94p9ZoE7eEu-76" value="" style="endArrow=none;html=1;rounded=0;strokeWidth=2;strokeColor=#000099;" parent="aqVbvqTBp94p9ZoE7eEu-1" edge="1">
          <mxGeometry width="50" height="50" relative="1" as="geometry">
            <mxPoint x="1090" y="620" as="sourcePoint" />
            <mxPoint x="1090" y="580" as="targetPoint" />
          </mxGeometry>
        </mxCell>
        <mxCell id="aqVbvqTBp94p9ZoE7eEu-77" value="&lt;font style=&quot;font-size: 24px;&quot;&gt;J&lt;/font&gt;" style="text;html=1;strokeColor=none;fillColor=none;align=center;verticalAlign=middle;whiteSpace=wrap;rounded=0;" parent="aqVbvqTBp94p9ZoE7eEu-1" vertex="1">
          <mxGeometry x="760" y="600" width="30" height="30" as="geometry" />
        </mxCell>
        <mxCell id="aqVbvqTBp94p9ZoE7eEu-78" value="&lt;font style=&quot;font-size: 24px;&quot;&gt;F&lt;/font&gt;" style="text;html=1;strokeColor=none;fillColor=none;align=center;verticalAlign=middle;whiteSpace=wrap;rounded=0;" parent="aqVbvqTBp94p9ZoE7eEu-1" vertex="1">
          <mxGeometry x="790" y="600" width="30" height="30" as="geometry" />
        </mxCell>
        <mxCell id="aqVbvqTBp94p9ZoE7eEu-79" value="&lt;font style=&quot;font-size: 24px;&quot;&gt;A&lt;/font&gt;" style="text;html=1;strokeColor=none;fillColor=none;align=center;verticalAlign=middle;whiteSpace=wrap;rounded=0;" parent="aqVbvqTBp94p9ZoE7eEu-1" vertex="1">
          <mxGeometry x="850" y="600" width="30" height="30" as="geometry" />
        </mxCell>
        <mxCell id="aqVbvqTBp94p9ZoE7eEu-80" value="&lt;font style=&quot;font-size: 24px;&quot;&gt;M&lt;/font&gt;" style="text;html=1;strokeColor=none;fillColor=none;align=center;verticalAlign=middle;whiteSpace=wrap;rounded=0;" parent="aqVbvqTBp94p9ZoE7eEu-1" vertex="1">
          <mxGeometry x="820" y="600" width="30" height="30" as="geometry" />
        </mxCell>
        <mxCell id="aqVbvqTBp94p9ZoE7eEu-81" value="&lt;font style=&quot;font-size: 24px;&quot;&gt;M&lt;/font&gt;" style="text;html=1;strokeColor=none;fillColor=none;align=center;verticalAlign=middle;whiteSpace=wrap;rounded=0;" parent="aqVbvqTBp94p9ZoE7eEu-1" vertex="1">
          <mxGeometry x="880" y="600" width="30" height="30" as="geometry" />
        </mxCell>
        <mxCell id="aqVbvqTBp94p9ZoE7eEu-82" value="&lt;font style=&quot;font-size: 24px;&quot;&gt;J&lt;/font&gt;" style="text;html=1;strokeColor=none;fillColor=none;align=center;verticalAlign=middle;whiteSpace=wrap;rounded=0;" parent="aqVbvqTBp94p9ZoE7eEu-1" vertex="1">
          <mxGeometry x="910" y="600" width="30" height="30" as="geometry" />
        </mxCell>
        <mxCell id="aqVbvqTBp94p9ZoE7eEu-83" value="&lt;font style=&quot;font-size: 24px;&quot;&gt;J&lt;/font&gt;" style="text;html=1;strokeColor=none;fillColor=none;align=center;verticalAlign=middle;whiteSpace=wrap;rounded=0;" parent="aqVbvqTBp94p9ZoE7eEu-1" vertex="1">
          <mxGeometry x="940" y="600" width="30" height="30" as="geometry" />
        </mxCell>
        <mxCell id="aqVbvqTBp94p9ZoE7eEu-84" value="&lt;font style=&quot;font-size: 24px;&quot;&gt;A&lt;/font&gt;" style="text;html=1;strokeColor=none;fillColor=none;align=center;verticalAlign=middle;whiteSpace=wrap;rounded=0;" parent="aqVbvqTBp94p9ZoE7eEu-1" vertex="1">
          <mxGeometry x="970" y="600" width="30" height="30" as="geometry" />
        </mxCell>
        <mxCell id="aqVbvqTBp94p9ZoE7eEu-85" value="&lt;font style=&quot;font-size: 24px;&quot;&gt;S&lt;/font&gt;" style="text;html=1;strokeColor=none;fillColor=none;align=center;verticalAlign=middle;whiteSpace=wrap;rounded=0;" parent="aqVbvqTBp94p9ZoE7eEu-1" vertex="1">
          <mxGeometry x="1000" y="600" width="30" height="30" as="geometry" />
        </mxCell>
        <mxCell id="aqVbvqTBp94p9ZoE7eEu-86" value="&lt;font style=&quot;font-size: 24px;&quot;&gt;O&lt;/font&gt;" style="text;html=1;strokeColor=none;fillColor=none;align=center;verticalAlign=middle;whiteSpace=wrap;rounded=0;" parent="aqVbvqTBp94p9ZoE7eEu-1" vertex="1">
          <mxGeometry x="1030" y="600" width="30" height="30" as="geometry" />
        </mxCell>
        <mxCell id="aqVbvqTBp94p9ZoE7eEu-87" value="&lt;font style=&quot;font-size: 24px;&quot;&gt;N&lt;/font&gt;" style="text;html=1;strokeColor=none;fillColor=none;align=center;verticalAlign=middle;whiteSpace=wrap;rounded=0;" parent="aqVbvqTBp94p9ZoE7eEu-1" vertex="1">
          <mxGeometry x="1060" y="600" width="30" height="30" as="geometry" />
        </mxCell>
        <mxCell id="aqVbvqTBp94p9ZoE7eEu-88" value="&lt;font style=&quot;font-size: 24px;&quot;&gt;D&lt;/font&gt;" style="text;html=1;strokeColor=none;fillColor=none;align=center;verticalAlign=middle;whiteSpace=wrap;rounded=0;" parent="aqVbvqTBp94p9ZoE7eEu-1" vertex="1">
          <mxGeometry x="1090" y="600" width="30" height="30" as="geometry" />
        </mxCell>
        <mxCell id="aqVbvqTBp94p9ZoE7eEu-89" value="" style="endArrow=none;html=1;rounded=0;strokeWidth=2;strokeColor=#000099;" parent="aqVbvqTBp94p9ZoE7eEu-1" edge="1">
          <mxGeometry width="50" height="50" relative="1" as="geometry">
            <mxPoint x="1120" y="630" as="sourcePoint" />
            <mxPoint x="1120" y="570" as="targetPoint" />
          </mxGeometry>
        </mxCell>
        <mxCell id="aqVbvqTBp94p9ZoE7eEu-90" value="" style="endArrow=none;html=1;rounded=0;strokeWidth=2;strokeColor=#000099;" parent="aqVbvqTBp94p9ZoE7eEu-1" edge="1">
          <mxGeometry width="50" height="50" relative="1" as="geometry">
            <mxPoint x="1150" y="620" as="sourcePoint" />
            <mxPoint x="1150" y="580" as="targetPoint" />
          </mxGeometry>
        </mxCell>
        <mxCell id="aqVbvqTBp94p9ZoE7eEu-91" value="" style="endArrow=none;html=1;rounded=0;strokeWidth=2;strokeColor=#000099;" parent="aqVbvqTBp94p9ZoE7eEu-1" edge="1">
          <mxGeometry width="50" height="50" relative="1" as="geometry">
            <mxPoint x="1180" y="620" as="sourcePoint" />
            <mxPoint x="1180" y="580" as="targetPoint" />
          </mxGeometry>
        </mxCell>
        <mxCell id="aqVbvqTBp94p9ZoE7eEu-92" value="" style="endArrow=none;html=1;rounded=0;strokeWidth=2;strokeColor=#000099;" parent="aqVbvqTBp94p9ZoE7eEu-1" edge="1">
          <mxGeometry width="50" height="50" relative="1" as="geometry">
            <mxPoint x="1210" y="620" as="sourcePoint" />
            <mxPoint x="1210" y="580" as="targetPoint" />
          </mxGeometry>
        </mxCell>
        <mxCell id="aqVbvqTBp94p9ZoE7eEu-93" value="" style="endArrow=none;html=1;rounded=0;strokeWidth=2;strokeColor=#000099;" parent="aqVbvqTBp94p9ZoE7eEu-1" edge="1">
          <mxGeometry width="50" height="50" relative="1" as="geometry">
            <mxPoint x="1240" y="620" as="sourcePoint" />
            <mxPoint x="1240" y="580" as="targetPoint" />
          </mxGeometry>
        </mxCell>
        <mxCell id="aqVbvqTBp94p9ZoE7eEu-94" value="" style="endArrow=none;html=1;rounded=0;strokeWidth=2;strokeColor=#000099;" parent="aqVbvqTBp94p9ZoE7eEu-1" edge="1">
          <mxGeometry width="50" height="50" relative="1" as="geometry">
            <mxPoint x="1270" y="620" as="sourcePoint" />
            <mxPoint x="1270" y="580" as="targetPoint" />
          </mxGeometry>
        </mxCell>
        <mxCell id="aqVbvqTBp94p9ZoE7eEu-95" value="" style="endArrow=none;html=1;rounded=0;strokeWidth=2;strokeColor=#000099;" parent="aqVbvqTBp94p9ZoE7eEu-1" edge="1">
          <mxGeometry width="50" height="50" relative="1" as="geometry">
            <mxPoint x="1300" y="620" as="sourcePoint" />
            <mxPoint x="1300" y="580" as="targetPoint" />
          </mxGeometry>
        </mxCell>
        <mxCell id="aqVbvqTBp94p9ZoE7eEu-96" value="" style="endArrow=none;html=1;rounded=0;strokeWidth=2;strokeColor=#000099;" parent="aqVbvqTBp94p9ZoE7eEu-1" edge="1">
          <mxGeometry width="50" height="50" relative="1" as="geometry">
            <mxPoint x="1330" y="620" as="sourcePoint" />
            <mxPoint x="1330" y="580" as="targetPoint" />
          </mxGeometry>
        </mxCell>
        <mxCell id="aqVbvqTBp94p9ZoE7eEu-97" value="" style="endArrow=none;html=1;rounded=0;strokeWidth=2;strokeColor=#000099;" parent="aqVbvqTBp94p9ZoE7eEu-1" edge="1">
          <mxGeometry width="50" height="50" relative="1" as="geometry">
            <mxPoint x="1360" y="620" as="sourcePoint" />
            <mxPoint x="1360" y="580" as="targetPoint" />
          </mxGeometry>
        </mxCell>
        <mxCell id="aqVbvqTBp94p9ZoE7eEu-98" value="" style="endArrow=none;html=1;rounded=0;strokeWidth=2;strokeColor=#000099;" parent="aqVbvqTBp94p9ZoE7eEu-1" edge="1">
          <mxGeometry width="50" height="50" relative="1" as="geometry">
            <mxPoint x="1390" y="620" as="sourcePoint" />
            <mxPoint x="1390" y="580" as="targetPoint" />
          </mxGeometry>
        </mxCell>
        <mxCell id="aqVbvqTBp94p9ZoE7eEu-99" value="" style="endArrow=none;html=1;rounded=0;strokeWidth=2;strokeColor=#000099;" parent="aqVbvqTBp94p9ZoE7eEu-1" edge="1">
          <mxGeometry width="50" height="50" relative="1" as="geometry">
            <mxPoint x="1420" y="620" as="sourcePoint" />
            <mxPoint x="1420" y="580" as="targetPoint" />
          </mxGeometry>
        </mxCell>
        <mxCell id="aqVbvqTBp94p9ZoE7eEu-100" value="" style="endArrow=none;html=1;rounded=0;strokeWidth=2;strokeColor=#000099;" parent="aqVbvqTBp94p9ZoE7eEu-1" edge="1">
          <mxGeometry width="50" height="50" relative="1" as="geometry">
            <mxPoint x="1450" y="620" as="sourcePoint" />
            <mxPoint x="1450" y="580" as="targetPoint" />
          </mxGeometry>
        </mxCell>
        <mxCell id="aqVbvqTBp94p9ZoE7eEu-101" value="&lt;font style=&quot;font-size: 24px;&quot;&gt;J&lt;/font&gt;" style="text;html=1;strokeColor=none;fillColor=none;align=center;verticalAlign=middle;whiteSpace=wrap;rounded=0;" parent="aqVbvqTBp94p9ZoE7eEu-1" vertex="1">
          <mxGeometry x="1120" y="600" width="30" height="30" as="geometry" />
        </mxCell>
        <mxCell id="aqVbvqTBp94p9ZoE7eEu-102" value="&lt;font style=&quot;font-size: 24px;&quot;&gt;F&lt;/font&gt;" style="text;html=1;strokeColor=none;fillColor=none;align=center;verticalAlign=middle;whiteSpace=wrap;rounded=0;" parent="aqVbvqTBp94p9ZoE7eEu-1" vertex="1">
          <mxGeometry x="1150" y="600" width="30" height="30" as="geometry" />
        </mxCell>
        <mxCell id="aqVbvqTBp94p9ZoE7eEu-103" value="&lt;font style=&quot;font-size: 24px;&quot;&gt;A&lt;/font&gt;" style="text;html=1;strokeColor=none;fillColor=none;align=center;verticalAlign=middle;whiteSpace=wrap;rounded=0;" parent="aqVbvqTBp94p9ZoE7eEu-1" vertex="1">
          <mxGeometry x="1210" y="600" width="30" height="30" as="geometry" />
        </mxCell>
        <mxCell id="aqVbvqTBp94p9ZoE7eEu-104" value="&lt;font style=&quot;font-size: 24px;&quot;&gt;M&lt;/font&gt;" style="text;html=1;strokeColor=none;fillColor=none;align=center;verticalAlign=middle;whiteSpace=wrap;rounded=0;" parent="aqVbvqTBp94p9ZoE7eEu-1" vertex="1">
          <mxGeometry x="1180" y="600" width="30" height="30" as="geometry" />
        </mxCell>
        <mxCell id="aqVbvqTBp94p9ZoE7eEu-105" value="&lt;font style=&quot;font-size: 24px;&quot;&gt;M&lt;/font&gt;" style="text;html=1;strokeColor=none;fillColor=none;align=center;verticalAlign=middle;whiteSpace=wrap;rounded=0;" parent="aqVbvqTBp94p9ZoE7eEu-1" vertex="1">
          <mxGeometry x="1240" y="600" width="30" height="30" as="geometry" />
        </mxCell>
        <mxCell id="aqVbvqTBp94p9ZoE7eEu-106" value="&lt;font style=&quot;font-size: 24px;&quot;&gt;J&lt;/font&gt;" style="text;html=1;strokeColor=none;fillColor=none;align=center;verticalAlign=middle;whiteSpace=wrap;rounded=0;" parent="aqVbvqTBp94p9ZoE7eEu-1" vertex="1">
          <mxGeometry x="1270" y="600" width="30" height="30" as="geometry" />
        </mxCell>
        <mxCell id="aqVbvqTBp94p9ZoE7eEu-107" value="&lt;font style=&quot;font-size: 24px;&quot;&gt;J&lt;/font&gt;" style="text;html=1;strokeColor=none;fillColor=none;align=center;verticalAlign=middle;whiteSpace=wrap;rounded=0;" parent="aqVbvqTBp94p9ZoE7eEu-1" vertex="1">
          <mxGeometry x="1300" y="600" width="30" height="30" as="geometry" />
        </mxCell>
        <mxCell id="aqVbvqTBp94p9ZoE7eEu-108" value="&lt;font style=&quot;font-size: 24px;&quot;&gt;A&lt;/font&gt;" style="text;html=1;strokeColor=none;fillColor=none;align=center;verticalAlign=middle;whiteSpace=wrap;rounded=0;" parent="aqVbvqTBp94p9ZoE7eEu-1" vertex="1">
          <mxGeometry x="1330" y="600" width="30" height="30" as="geometry" />
        </mxCell>
        <mxCell id="aqVbvqTBp94p9ZoE7eEu-109" value="&lt;font style=&quot;font-size: 24px;&quot;&gt;S&lt;/font&gt;" style="text;html=1;strokeColor=none;fillColor=none;align=center;verticalAlign=middle;whiteSpace=wrap;rounded=0;" parent="aqVbvqTBp94p9ZoE7eEu-1" vertex="1">
          <mxGeometry x="1360" y="600" width="30" height="30" as="geometry" />
        </mxCell>
        <mxCell id="aqVbvqTBp94p9ZoE7eEu-110" value="&lt;font style=&quot;font-size: 24px;&quot;&gt;O&lt;/font&gt;" style="text;html=1;strokeColor=none;fillColor=none;align=center;verticalAlign=middle;whiteSpace=wrap;rounded=0;" parent="aqVbvqTBp94p9ZoE7eEu-1" vertex="1">
          <mxGeometry x="1390" y="600" width="30" height="30" as="geometry" />
        </mxCell>
        <mxCell id="aqVbvqTBp94p9ZoE7eEu-111" value="&lt;font style=&quot;font-size: 24px;&quot;&gt;N&lt;/font&gt;" style="text;html=1;strokeColor=none;fillColor=none;align=center;verticalAlign=middle;whiteSpace=wrap;rounded=0;" parent="aqVbvqTBp94p9ZoE7eEu-1" vertex="1">
          <mxGeometry x="1420" y="600" width="30" height="30" as="geometry" />
        </mxCell>
        <mxCell id="aqVbvqTBp94p9ZoE7eEu-112" value="&lt;font style=&quot;font-size: 24px;&quot;&gt;D&lt;/font&gt;" style="text;html=1;strokeColor=none;fillColor=none;align=center;verticalAlign=middle;whiteSpace=wrap;rounded=0;" parent="aqVbvqTBp94p9ZoE7eEu-1" vertex="1">
          <mxGeometry x="1450" y="600" width="30" height="30" as="geometry" />
        </mxCell>
        <mxCell id="aqVbvqTBp94p9ZoE7eEu-113" value="" style="endArrow=none;html=1;rounded=0;strokeWidth=2;strokeColor=#000099;" parent="aqVbvqTBp94p9ZoE7eEu-1" edge="1">
          <mxGeometry width="50" height="50" relative="1" as="geometry">
            <mxPoint x="1480" y="630" as="sourcePoint" />
            <mxPoint x="1480" y="570" as="targetPoint" />
          </mxGeometry>
        </mxCell>
        <mxCell id="aqVbvqTBp94p9ZoE7eEu-114" value="" style="endArrow=diamond;html=1;rounded=0;startArrow=none;startFill=0;endFill=1;strokeWidth=3;strokeColor=#0000FF;" parent="aqVbvqTBp94p9ZoE7eEu-1" source="aqVbvqTBp94p9ZoE7eEu-127" edge="1">
          <mxGeometry width="50" height="50" relative="1" as="geometry">
            <mxPoint x="940" y="680" as="sourcePoint" />
            <mxPoint x="716" y="680" as="targetPoint" />
          </mxGeometry>
        </mxCell>
        <mxCell id="aqVbvqTBp94p9ZoE7eEu-115" value="&lt;font style=&quot;font-size: 24px;&quot;&gt;2020&lt;/font&gt;" style="text;html=1;strokeColor=none;fillColor=none;align=center;verticalAlign=middle;whiteSpace=wrap;rounded=0;" parent="aqVbvqTBp94p9ZoE7eEu-1" vertex="1">
          <mxGeometry x="40" y="630" width="360" height="30" as="geometry" />
        </mxCell>
        <mxCell id="aqVbvqTBp94p9ZoE7eEu-116" value="&lt;font style=&quot;font-size: 24px;&quot;&gt;2021&lt;/font&gt;" style="text;html=1;strokeColor=none;fillColor=none;align=center;verticalAlign=middle;whiteSpace=wrap;rounded=0;" parent="aqVbvqTBp94p9ZoE7eEu-1" vertex="1">
          <mxGeometry x="400" y="630" width="360" height="30" as="geometry" />
        </mxCell>
        <mxCell id="aqVbvqTBp94p9ZoE7eEu-117" value="&lt;font style=&quot;font-size: 24px;&quot;&gt;2023&lt;/font&gt;" style="text;html=1;strokeColor=none;fillColor=none;align=center;verticalAlign=middle;whiteSpace=wrap;rounded=0;" parent="aqVbvqTBp94p9ZoE7eEu-1" vertex="1">
          <mxGeometry x="1120" y="630" width="360" height="30" as="geometry" />
        </mxCell>
        <mxCell id="aqVbvqTBp94p9ZoE7eEu-118" value="&lt;font style=&quot;font-size: 24px;&quot;&gt;2022&lt;/font&gt;" style="text;html=1;strokeColor=none;fillColor=none;align=center;verticalAlign=middle;whiteSpace=wrap;rounded=0;" parent="aqVbvqTBp94p9ZoE7eEu-1" vertex="1">
          <mxGeometry x="760" y="630" width="360" height="30" as="geometry" />
        </mxCell>
        <mxCell id="aqVbvqTBp94p9ZoE7eEu-124" value="" style="endArrow=diamondThin;html=1;rounded=0;startArrow=none;startFill=0;endFill=1;strokeWidth=3;strokeColor=#0000FF;" parent="aqVbvqTBp94p9ZoE7eEu-1" source="aqVbvqTBp94p9ZoE7eEu-123" edge="1">
          <mxGeometry width="50" height="50" relative="1" as="geometry">
            <mxPoint x="160" y="680" as="sourcePoint" />
            <mxPoint x="730" y="680" as="targetPoint" />
          </mxGeometry>
        </mxCell>
        <mxCell id="aqVbvqTBp94p9ZoE7eEu-131" value="" style="endArrow=diamond;html=1;rounded=0;startArrow=none;startFill=0;endFill=1;strokeWidth=3;strokeColor=#0000FF;" parent="aqVbvqTBp94p9ZoE7eEu-1" source="aqVbvqTBp94p9ZoE7eEu-132" edge="1">
          <mxGeometry width="50" height="50" relative="1" as="geometry">
            <mxPoint x="1300" y="680" as="sourcePoint" />
            <mxPoint x="1130" y="680" as="targetPoint" />
          </mxGeometry>
        </mxCell>
        <mxCell id="aqVbvqTBp94p9ZoE7eEu-134" value="&lt;font style=&quot;font-size: 18px;&quot;&gt;&lt;font color=&quot;#990000&quot;&gt;&lt;sup&gt;1&lt;/sup&gt;&lt;/font&gt; excludes elements that are the responsibility of the organization&lt;br&gt;&lt;font style=&quot;border-color: var(--border-color);&quot; color=&quot;#990000&quot;&gt;&lt;sup style=&quot;border-color: var(--border-color);&quot;&gt;2&lt;/sup&gt;&lt;/font&gt;&amp;nbsp;excludes elements that are the sole responsibility of the OEM&lt;br&gt;&lt;/font&gt;" style="text;html=1;strokeColor=none;fillColor=none;align=left;verticalAlign=middle;whiteSpace=wrap;rounded=0;labelBackgroundColor=none;" parent="aqVbvqTBp94p9ZoE7eEu-1" vertex="1">
          <mxGeometry x="450" y="710" width="540" height="60" as="geometry" />
        </mxCell>
        <mxCell id="aqVbvqTBp94p9ZoE7eEu-135" value="&lt;font style=&quot;font-size: 24px;&quot;&gt;AVCDL work begins&lt;/font&gt;" style="text;html=1;strokeColor=none;fillColor=none;align=left;verticalAlign=middle;whiteSpace=wrap;rounded=0;rotation=-45;" parent="aqVbvqTBp94p9ZoE7eEu-1" vertex="1">
          <mxGeometry x="28.33" y="456.67" width="220" height="30" as="geometry" />
        </mxCell>
        <mxCell id="aqVbvqTBp94p9ZoE7eEu-136" value="&lt;font style=&quot;font-size: 24px;&quot;&gt;AVCDL discussion / review begins&lt;/font&gt;" style="text;html=1;strokeColor=none;fillColor=none;align=left;verticalAlign=middle;whiteSpace=wrap;rounded=0;rotation=315;" parent="aqVbvqTBp94p9ZoE7eEu-1" vertex="1">
          <mxGeometry x="125.62" y="401.83" width="375.1" height="30" as="geometry" />
        </mxCell>
        <mxCell id="aqVbvqTBp94p9ZoE7eEu-137" value="&lt;font style=&quot;font-size: 24px;&quot;&gt;AVCDL 21434 / 26262 assessments begin&lt;/font&gt;" style="text;html=1;strokeColor=none;fillColor=none;align=left;verticalAlign=middle;whiteSpace=wrap;rounded=0;rotation=315;" parent="aqVbvqTBp94p9ZoE7eEu-1" vertex="1">
          <mxGeometry x="653.18" y="371.82" width="460" height="30" as="geometry" />
        </mxCell>
        <mxCell id="aqVbvqTBp94p9ZoE7eEu-138" value="&lt;font style=&quot;font-size: 24px;&quot;&gt;&lt;font color=&quot;#7f00ff&quot;&gt;AVCDL assessed compliant with 21434 &lt;/font&gt;&lt;sup style=&quot;&quot;&gt;&lt;font color=&quot;#990000&quot;&gt;1&lt;/font&gt;&lt;/sup&gt;&lt;/font&gt;" style="text;html=1;strokeColor=none;fillColor=none;align=left;verticalAlign=middle;whiteSpace=wrap;rounded=0;rotation=315;" parent="aqVbvqTBp94p9ZoE7eEu-1" vertex="1">
          <mxGeometry x="864.64" y="375.36" width="450" height="30" as="geometry" />
        </mxCell>
        <mxCell id="aqVbvqTBp94p9ZoE7eEu-139" value="&lt;font style=&quot;font-size: 24px;&quot;&gt;AVCDL 26262 support assessment complete&lt;br&gt;&lt;/font&gt;" style="text;html=1;strokeColor=none;fillColor=none;align=left;verticalAlign=middle;whiteSpace=wrap;rounded=0;rotation=315;" parent="aqVbvqTBp94p9ZoE7eEu-1" vertex="1">
          <mxGeometry x="918.79" y="361.21" width="490" height="30" as="geometry" />
        </mxCell>
        <mxCell id="aqVbvqTBp94p9ZoE7eEu-140" value="&lt;font style=&quot;font-size: 24px;&quot;&gt;AVCDL R155 assessment begins&lt;/font&gt;" style="text;html=1;strokeColor=none;fillColor=none;align=left;verticalAlign=middle;whiteSpace=wrap;rounded=0;rotation=315;" parent="aqVbvqTBp94p9ZoE7eEu-1" vertex="1">
          <mxGeometry x="1086.36" y="403.64" width="370" height="30" as="geometry" />
        </mxCell>
        <mxCell id="aqVbvqTBp94p9ZoE7eEu-141" value="&lt;font style=&quot;border-color: var(--border-color); font-size: 24px;&quot;&gt;&lt;font color=&quot;#7f00ff&quot;&gt;AVCDL assessed compliant with R155&amp;nbsp;&lt;/font&gt;&lt;sup style=&quot;&quot;&gt;&lt;font color=&quot;#990000&quot;&gt;1,2&lt;/font&gt;&lt;/sup&gt;&lt;/font&gt;" style="text;html=1;strokeColor=none;fillColor=none;align=left;verticalAlign=middle;whiteSpace=wrap;rounded=0;rotation=315;" parent="aqVbvqTBp94p9ZoE7eEu-1" vertex="1">
          <mxGeometry x="1224.64" y="375.36" width="450" height="30" as="geometry" />
        </mxCell>
        <mxCell id="hdGTD1NTb_N-D_ukH1JR-0" value="" style="endArrow=none;html=1;rounded=0;startArrow=diamond;startFill=1;endFill=0;strokeWidth=3;strokeColor=#0000FF;" parent="aqVbvqTBp94p9ZoE7eEu-1" target="aqVbvqTBp94p9ZoE7eEu-123" edge="1">
          <mxGeometry width="50" height="50" relative="1" as="geometry">
            <mxPoint x="160" y="680" as="sourcePoint" />
            <mxPoint x="730" y="680" as="targetPoint" />
          </mxGeometry>
        </mxCell>
        <mxCell id="aqVbvqTBp94p9ZoE7eEu-123" value="&lt;font style=&quot;font-size: 24px;&quot;&gt;19 mo&lt;/font&gt;" style="text;html=1;strokeColor=none;fillColor=none;align=center;verticalAlign=middle;whiteSpace=wrap;rounded=0;labelBackgroundColor=none;" parent="aqVbvqTBp94p9ZoE7eEu-1" vertex="1">
          <mxGeometry x="400" y="670" width="90" height="20" as="geometry" />
        </mxCell>
        <mxCell id="O1b_8OKfftqbkIWUbwSC-0" value="" style="endArrow=none;html=1;rounded=0;startArrow=diamond;startFill=1;endFill=0;strokeWidth=3;strokeColor=#0000FF;" parent="aqVbvqTBp94p9ZoE7eEu-1" target="aqVbvqTBp94p9ZoE7eEu-127" edge="1">
          <mxGeometry width="50" height="50" relative="1" as="geometry">
            <mxPoint x="940" y="680" as="sourcePoint" />
            <mxPoint x="716" y="680" as="targetPoint" />
          </mxGeometry>
        </mxCell>
        <mxCell id="aqVbvqTBp94p9ZoE7eEu-127" value="&lt;font style=&quot;font-size: 24px;&quot;&gt;8 mo&lt;/font&gt;" style="text;html=1;strokeColor=none;fillColor=none;align=center;verticalAlign=middle;whiteSpace=wrap;rounded=0;labelBackgroundColor=none;" parent="aqVbvqTBp94p9ZoE7eEu-1" vertex="1">
          <mxGeometry x="790" y="670" width="70" height="20" as="geometry" />
        </mxCell>
        <mxCell id="O1b_8OKfftqbkIWUbwSC-1" value="" style="endArrow=none;html=1;rounded=0;startArrow=diamond;startFill=1;endFill=0;strokeWidth=3;strokeColor=#0000FF;" parent="aqVbvqTBp94p9ZoE7eEu-1" target="aqVbvqTBp94p9ZoE7eEu-132" edge="1">
          <mxGeometry width="50" height="50" relative="1" as="geometry">
            <mxPoint x="1300" y="680" as="sourcePoint" />
            <mxPoint x="1130" y="680" as="targetPoint" />
          </mxGeometry>
        </mxCell>
        <mxCell id="aqVbvqTBp94p9ZoE7eEu-132" value="&lt;font style=&quot;font-size: 24px;&quot;&gt;6 mo&lt;/font&gt;" style="text;html=1;strokeColor=none;fillColor=none;align=center;verticalAlign=middle;whiteSpace=wrap;rounded=0;labelBackgroundColor=none;" parent="aqVbvqTBp94p9ZoE7eEu-1" vertex="1">
          <mxGeometry x="1180" y="670" width="70" height="20" as="geometry" />
        </mxCell>
      </root>
    </mxGraphModel>
  </diagram>
</mxfile>
